<?xml version="1.0" encoding="UTF-8"?>
<svg version="1.1" xmlns="http://www.w3.org/2000/svg" width="256" height="256">
<path d="M0 0 C2.1875 0.375 2.1875 0.375 3.1875 1.375 C3.84886867 9.33989353 1.95499569 16.60372703 0.03916931 24.26332855 C-0.54260215 26.59232081 -1.11036887 28.9243495 -1.67468262 31.25762939 C-3.28043361 37.88545527 -4.91216843 44.50682197 -6.54931641 51.12695312 C-7.55390494 55.19329023 -8.54372445 59.26301391 -9.52540588 63.33493805 C-9.89919046 64.87187839 -10.27862309 66.40745803 -10.66416931 67.94149017 C-14.83551865 83.89257449 -14.83551865 83.89257449 -12.3125 99.8125 C-8.98389965 105.31042954 -3.80468269 108.27905556 1.6796875 111.34765625 C2.2979541 111.69376953 2.9162207 112.03988281 3.55322266 112.39648438 C4.78293508 113.07586942 6.01942444 113.74316986 7.26318359 114.39648438 C11.85561974 116.88911899 14.84451008 119.68902015 17.1875 124.375 C17.65316337 128.6963561 17.01554402 132.14893482 14.5703125 135.76953125 C9.25376517 141.79689901 3.21322989 147.1560966 -2.734375 152.55078125 C-5.2722572 154.86068682 -7.71929241 157.2391716 -10.125 159.6875 C-12.51951945 162.12184514 -14.96448112 164.40951151 -17.5625 166.625 C-21.15766689 169.71061568 -24.48588405 173.0069696 -27.8125 176.375 C-31.68506514 180.29565661 -35.62042255 184.029042 -39.8203125 187.6015625 C-42.25187981 189.76613418 -44.52461081 192.05929453 -46.8125 194.375 C-49.68807659 197.28553801 -52.57124094 200.09924022 -55.6875 202.75 C-59.24539295 205.78933365 -62.52667107 209.04884475 -65.8125 212.375 C-80.48286344 227.20859739 -80.48286344 227.20859739 -85.4375 227.5625 C-87.8125 227.375 -87.8125 227.375 -88.8125 226.375 C-89.53489078 217.62617885 -87.20215703 209.51526115 -85.12890625 201.09765625 C-84.74908014 199.520477 -84.3703508 197.94303327 -83.99266052 196.36534119 C-83.0003427 192.22928671 -81.99707274 188.09598098 -80.99023438 183.96343994 C-79.38065743 177.35507269 -77.78175653 170.74418616 -76.19447136 164.13043022 C-75.64141645 161.83703329 -75.07993405 159.54581884 -74.51771545 157.25465393 C-70.59873518 143.66591488 -70.59873518 143.66591488 -72.3125 130.125 C-72.6115625 129.35671875 -72.910625 128.5884375 -73.21875 127.796875 C-77.84798158 120.76225838 -85.50039763 117.06045474 -92.75976562 113.25195312 C-97.98614705 110.34737183 -100.39573234 107.88825123 -102.8125 102.375 C-103.19798927 97.6720309 -102.77316159 95.69746921 -100.0078125 91.890625 C-95.99114017 87.30411335 -91.63285002 83.20868139 -86.9765625 79.28515625 C-84.30564575 76.92761421 -81.81107407 74.41156059 -79.3125 71.875 C-75.64435055 68.15623384 -71.88098412 64.63829794 -67.90625 61.25 C-64.76729653 58.43899689 -61.83899319 55.42232203 -58.88110352 52.42407227 C-55.65883552 49.17499393 -52.31909355 46.15056137 -48.83984375 43.18359375 C-46.39821366 41.00541508 -44.11201968 38.70251992 -41.8125 36.375 C-38.93692341 33.46446199 -36.05375906 30.65075978 -32.9375 28 C-29.3796063 24.96066571 -26.09833791 21.70114555 -22.8125 18.375 C-18.85197945 14.37059728 -14.85716451 10.48144021 -10.55078125 6.84375 C-9.39955952 5.87103232 -8.27099528 4.87079608 -7.16796875 3.84375 C-4.76334251 1.65219191 -3.27239667 0.43631956 0 0 Z " fill="#D1FF2B" transform="translate(162.8125,11.625)"/>
</svg>
